<svg width="128" height="128" viewBox="0 0 128 128" fill="none" xmlns="http://www.w3.org/2000/svg">
<path d="M10.6694 15.38C7.52687 15.38 4.97938 12.8325 4.97938 9.69C4.97938 6.5475 7.52687 4 10.6694 4C13.8119 4 16.3594 6.5475 16.3594 9.69C16.3594 12.8325 13.8119 15.38 10.6694 15.38Z" fill="black"/>
<path d="M47.9095 78.3799C47.9095 78.3799 38.3995 91.1799 38.3995 96.2299C38.3995 101.28 42.4995 105.38 47.5495 105.38C51.8595 105.38 105.75 105.27 111.7 105.27C117.65 105.27 121.02 108.76 121.02 108.76" stroke="black" stroke-width="4.913" stroke-miterlimit="10" stroke-linecap="round"/>
<path d="M69.1699 77.1299C69.1699 77.1299 58.5699 91.1799 58.5699 96.2399C58.5699 101.3 63.2099 105.36 68.2599 105.36" stroke="black" stroke-width="4.913" stroke-miterlimit="10" stroke-linecap="round"/>
<path d="M45.2293 86.7295C47.2393 83.2895 48.8693 81.2895 51.4893 77.7095C51.4893 77.7095 50.7993 77.8595 48.9393 77.8595C47.0793 77.8595 45.7393 77.2695 45.7393 77.2695C43.0993 80.9995 42.3093 81.9495 40.8993 84.4495C40.8993 84.4495 40.9493 86.0795 42.2493 86.9395C43.5493 87.7995 45.2293 86.7295 45.2293 86.7295V86.7295Z" fill="black"/>
<path d="M65.44 86.8997C68.23 82.6397 70.46 79.3896 70.46 79.3896L64.46 79.5296C64.46 79.5296 61.77 83.1396 60.23 85.9996C60.23 85.9996 60 87.2997 61.72 87.9797C63.44 88.6397 65.44 86.8997 65.44 86.8997V86.8997Z" fill="black"/>
<path d="M47.8895 78.6402L117.829 73.9802C118.059 73.9602 118.229 73.7802 118.229 73.5502V34.5002C118.229 34.1302 117.939 33.8202 117.569 33.8002L28.9395 28.1602C28.0795 28.1002 27.4595 28.9602 27.7695 29.7602L46.5895 77.8202C46.7995 78.3502 47.3195 78.6802 47.8895 78.6402V78.6402Z" stroke="black" stroke-width="4.913" stroke-miterlimit="10"/>
<path d="M104.33 33.0605L106.17 74.5005" stroke="black" stroke-width="2.948" stroke-miterlimit="10"/>
<path d="M88.46 31.9805L94.21 75.3905" stroke="black" stroke-width="2.948" stroke-miterlimit="10"/>
<path d="M72.58 30.9004L82.25 76.2804" stroke="black" stroke-width="2.948" stroke-miterlimit="10"/>
<path d="M56.7 29.8203L70.29 77.1703" stroke="black" stroke-width="2.948" stroke-miterlimit="10"/>
<path d="M40.8301 28.7402L58.3301 78.0602" stroke="black" stroke-width="2.948" stroke-miterlimit="10"/>
<path d="M119.71 48.48L34.15 45.54" stroke="black" stroke-width="2.948" stroke-miterlimit="10"/>
<path d="M118.92 62.1104H39.5199" stroke="black" stroke-width="2.948" stroke-miterlimit="10"/>
<path d="M47.5899 124C43.4257 124 40.0499 120.624 40.0499 116.46C40.0499 112.296 43.4257 108.92 47.5899 108.92C51.7541 108.92 55.1299 112.296 55.1299 116.46C55.1299 120.624 51.7541 124 47.5899 124Z" fill="black"/>
<path d="M52.4492 106.08H42.7192L45.0392 116.17C45.2592 117.74 46.3292 118.88 47.5792 118.88C48.8292 118.88 49.9092 117.74 50.1192 116.17L52.4492 106.08Z" fill="black"/>
<path d="M46.0293 116.53C46.2093 117.19 46.5393 117.94 47.2093 118.11C49.6293 118.73 49.9693 112.78 48.7493 111.76C48.0093 111.14 46.4693 111.03 45.8193 111.8C44.9893 112.78 45.7193 115.44 46.0293 116.53V116.53Z" fill="black"/>
<path d="M47.4693 109.65C49.0793 109.65 50.2193 108.7 50.7793 108.11C50.8173 108.07 50.8432 108.021 50.8539 107.968C50.8646 107.914 50.8596 107.859 50.8395 107.808C50.8194 107.757 50.7851 107.714 50.7407 107.682C50.6963 107.65 50.6437 107.632 50.5893 107.63C49.5493 107.58 48.5093 107.59 47.4793 107.56C46.4393 107.59 45.3993 107.58 44.3693 107.63C44.1293 107.64 44.0093 107.94 44.1793 108.11C44.7093 108.7 45.8593 109.65 47.4693 109.65V109.65Z" fill="black"/>
<path d="M49.9594 119.02C49.3094 119.77 48.2694 120.12 47.2794 120C46.2994 119.88 45.3994 119.3 44.8094 118.5C44.4694 118.03 44.2294 117.49 43.8394 117.06C43.4494 116.63 42.8294 116.33 42.2894 116.55C41.5294 116.85 41.4294 117.91 41.6894 118.68C41.9416 119.45 42.3448 120.161 42.8754 120.772C43.406 121.383 44.0533 121.883 44.7794 122.24C45.7694 122.73 47.1494 122.93 48.2494 122.82C50.3594 122.6 52.6294 120.69 53.3694 118.73C53.7694 117.68 54.1194 115.57 52.0294 116.05C51.0594 116.28 50.7394 118.12 49.9594 119.02V119.02Z" fill="black"/>
<path d="M28.1797 30.7102L23.5697 19.4402C21.6897 14.8402 20.2997 13.8102 17.5097 12.5602L10.9797 9.91016" stroke="black" stroke-width="4.913" stroke-miterlimit="10" stroke-linecap="round"/>
<path d="M108.399 124C104.235 124 100.859 120.624 100.859 116.46C100.859 112.296 104.235 108.92 108.399 108.92C112.564 108.92 115.939 112.296 115.939 116.46C115.939 120.624 112.564 124 108.399 124Z" fill="black"/>
<path d="M113.27 106.08H103.54L105.86 116.17C106.08 117.74 107.15 118.88 108.4 118.88C109.65 118.88 110.73 117.74 110.94 116.17L113.27 106.08V106.08Z" fill="black"/>
<path d="M106.84 116.53C107.02 117.19 107.35 117.94 108.02 118.11C110.44 118.73 110.78 112.78 109.56 111.76C108.82 111.14 107.28 111.03 106.63 111.8C105.8 112.78 106.54 115.44 106.84 116.53V116.53Z" fill="black"/>
<path d="M108.28 109.651C109.89 109.651 111.03 108.701 111.59 108.111C111.628 108.071 111.654 108.022 111.664 107.969C111.675 107.915 111.67 107.86 111.65 107.809C111.63 107.758 111.596 107.715 111.551 107.683C111.507 107.651 111.454 107.633 111.4 107.631C110.36 107.581 109.32 107.591 108.29 107.561C107.25 107.591 106.21 107.581 105.18 107.631C104.94 107.641 104.82 107.941 104.99 108.111C105.53 108.701 106.68 109.651 108.28 109.651V109.651Z" fill="black"/>
<path d="M110.78 119.02C110.13 119.77 109.09 120.12 108.1 120C107.12 119.88 106.22 119.3 105.63 118.5C105.29 118.03 105.05 117.49 104.66 117.06C104.27 116.63 103.65 116.33 103.11 116.55C102.35 116.85 102.25 117.91 102.51 118.68C102.762 119.45 103.165 120.161 103.696 120.772C104.226 121.383 104.874 121.883 105.6 122.24C106.59 122.73 107.97 122.93 109.07 122.82C111.18 122.6 113.45 120.69 114.19 118.73C114.59 117.68 114.94 115.57 112.85 116.05C111.88 116.28 111.56 118.12 110.78 119.02V119.02Z" fill="black"/>
</svg>
